<svg version="1" xmlns="http://www.w3.org/2000/svg" width="2000" height="2000" viewBox="0 0 1500.000000 1500.000000"><path d="M893.5 204l-186 186H930v90H697.1c-257.5 0-243-.3-269.4 6.4-74 19-132.3 77.3-151.3 151.3-6.7 26.4-6.4 13.4-6.4 254.4V1110H47.5l186.3 186.2L420 1482.5l186.2-186.3L792.5 1110H570v-90l238.3-.3c236.6-.3 238.3-.3 248.2-2.4 45.4-9.4 81.3-28.1 111.6-58.3 30.9-30.7 49.7-66.4 59.2-112.5 2.1-9.9 2.1-11.9 2.4-233.3l.3-223.2h222.5l-186-186C1164.2 101.7 1080.3 18 1080 18c-.3 0-84.2 83.7-186.5 186zM930 630v90H510v450h137.5l-113.8 113.7L420 1397.5l-113.7-113.8L192.5 1170H330V926.7c0-159.7.4-246.3 1-252.2 2.3-19.8 6.2-33.2 14.9-51 7.5-15.3 16.1-27.4 28.2-39.4 12-12.1 24.1-20.7 39.4-28.2 17.4-8.5 32.7-12.9 51-14.9 3.9-.4 110.2-.8 236.3-.9L930 540v90z"/></svg>