<?xml version="1.0" standalone="no"?>
<!DOCTYPE svg PUBLIC "-//W3C//DTD SVG 20010904//EN"
 "http://www.w3.org/TR/2001/REC-SVG-20010904/DTD/svg10.dtd">
<svg version="1.0" xmlns="http://www.w3.org/2000/svg"
 width="82.000000pt" height="82.000000pt" viewBox="0 0 82.000000 82.000000"
 preserveAspectRatio="xMidYMid meet">
<metadata>
Created by potrace 1.11, written by Peter Selinger 2001-2013
</metadata>
<g transform="translate(0.000000,82.000000) scale(0.100000,-0.100000)"
fill="#000000" stroke="none">
<path d="M23 795 c-23 -24 -23 -25 -23 -385 l0 -361 25 -24 24 -25 361 0 361
0 24 25 25 24 0 361 0 361 -25 24 -24 25 -363 -1 -363 0 -22 -24z m237 -255
c0 -5 9 -10 20 -10 13 0 20 -7 20 -20 0 -18 -7 -20 -66 -20 -43 0 -70 -5 -80
-14 -18 -19 -18 -93 0 -112 18 -18 103 -19 108 -2 3 9 9 8 22 -5 15 -15 16
-19 2 -32 -8 -8 -22 -15 -30 -15 -9 0 -16 -4 -16 -10 0 -5 -13 -10 -30 -10
-16 0 -30 5 -30 10 0 6 -7 10 -15 10 -20 0 -65 45 -65 65 0 8 -4 15 -10 15 -5
0 -10 14 -10 30 0 17 5 30 10 30 6 0 10 7 10 15 0 9 15 31 33 50 27 29 39 34
80 34 26 1 47 -3 47 -9z m240 -20 l0 -30 -60 0 c-53 0 -60 -2 -60 -20 0 -17 7
-20 46 -20 55 0 84 -21 60 -45 -9 -9 -33 -15 -60 -15 l-46 0 0 -36 c0 -19 -6
-42 -14 -50 -20 -19 -26 -18 -26 6 0 11 -4 20 -10 20 -15 0 -13 188 3 205 8
10 35 14 90 15 l77 0 0 -30z m160 20 c0 -5 7 -10 16 -10 20 0 44 -24 44 -43 0
-9 6 -18 13 -21 10 -5 10 -7 0 -12 -7 -3 -13 -12 -13 -21 0 -19 -24 -43 -44
-43 -9 0 -16 -4 -16 -10 0 -5 -18 -10 -40 -10 -38 0 -40 -2 -40 -30 0 -23 -4
-30 -20 -30 -19 0 -20 7 -20 120 l0 120 60 0 c33 0 60 -4 60 -10z"/>
<path d="M580 460 c0 -28 3 -30 36 -30 38 0 64 18 64 44 0 12 -11 16 -50 16
-49 0 -50 -1 -50 -30z"/>
</g>
</svg>
